<?xml version="1.0" encoding="UTF-8" standalone="no"?>
<svg
   xmlns:dc="http://purl.org/dc/elements/1.1/"
   xmlns:cc="http://creativecommons.org/ns#"
   xmlns:rdf="http://www.w3.org/1999/02/22-rdf-syntax-ns#"
   xmlns:svg="http://www.w3.org/2000/svg"
   xmlns="http://www.w3.org/2000/svg"
   viewBox="0 0 1113.3333 526.66669"
   height="526.66669"
   width="1113.3333"
   xml:space="preserve"
   id="svg2"
   version="1.1"><metadata
     id="metadata8"><rdf:RDF><cc:Work
         rdf:about=""><dc:format>image/svg+xml</dc:format><dc:type
           rdf:resource="http://purl.org/dc/dcmitype/StillImage" /></cc:Work></rdf:RDF></metadata><defs
     id="defs6" /><g
     transform="matrix(1.3333333,0,0,-1.3333333,0,526.66667)"
     id="g10"><g
       id="g12" /><g
       id="g14"><path
         id="path16"
         style="fill:#d9d9d9;fill-opacity:1;fill-rule:evenodd;stroke:none"
         d="M 59.5,73.08319 C 59.5,76.07481 61.92518,78.5 64.91679,78.5 H 185.0832 c 2.9916,0 5.4168,-2.42519 5.4168,-5.41681 V 51.41681 C 190.5,48.42519 188.0748,46 185.0832,46 H 64.91679 C 61.92518,46 59.5,48.42519 59.5,51.41681 Z" /><g
         transform="matrix(7.874016e-5,0,0,-7.874016e-5,59.5,78.5)"
         id="g18"><path
           id="path20"
           style="fill:none;stroke:#000000;stroke-width:12700;stroke-linecap:butt;stroke-linejoin:miter;stroke-miterlimit:8;stroke-dasharray:none;stroke-opacity:1"
           d="M 0,68793.49 C 0,30799.89 30799.76,0 68793.19,0 H 1594907 c 37993,0 68793,30799.89 68793,68793.49 V 343956.5 c 0,37993.6 -30800,68793.5 -68793,68793.5 H 68793.19 C 30799.76,412750 0,381950.1 0,343956.5 Z" /></g><g
         transform="matrix(0.5,0,0,0.5,92.70071,-339)"
         id="g22"><text
           id="text26"
           style="font-variant:normal;font-weight:normal;font-size:36px;font-family:Calibri;-inkscape-font-specification:Calibri;writing-mode:lr-tb;fill:#000000;fill-opacity:1;fill-rule:nonzero;stroke:none"
           transform="matrix(1,0,0,-1,0,790)"><tspan
             id="tspan24"
             y="0"
             x="0 22.7484 44.992802 61.4772 69.717598 80.730003 88.970398 97.2108 115.2072">GDS files</tspan></text>
</g><path
         id="path28"
         style="fill:#4472c4;fill-opacity:1;fill-rule:evenodd;stroke:none"
         d="m 1.25,285.4165 c 0,2.9456 2.387873,5.3335 5.333465,5.3335 H 243.9165 c 2.9456,0 5.3335,-2.3879 5.3335,-5.3335 v -21.333 c 0,-2.9456 -2.3879,-5.3335 -5.3335,-5.3335 H 6.583465 C 3.637873,258.75 1.25,261.1379 1.25,264.0835 Z" /><g
         transform="matrix(7.874016e-5,0,0,-7.874016e-5,1.25,290.75)"
         id="g30"><path
           id="path32"
           style="fill:none;stroke:#ffffff;stroke-width:19050;stroke-linecap:butt;stroke-linejoin:miter;stroke-miterlimit:8;stroke-dasharray:none;stroke-opacity:1"
           d="M 0,67735.06 C 0,30326.02 30325.99,0 67735,0 h 3014130 c 37409,0 67735,30326.02 67735,67735.06 V 338664.9 c 0,37409.1 -30326,67735.1 -67735,67735.1 H 67735 C 30325.99,406400 0,376074 0,338664.9 Z" /></g><g
         transform="matrix(0.5,0,0,0.5,47.70071,-126)"
         id="g34"><text
           id="text38"
           style="font-variant:normal;font-weight:normal;font-size:36px;font-family:Calibri;-inkscape-font-specification:Calibri;writing-mode:lr-tb;fill:#ffffff;fill-opacity:1;fill-rule:nonzero;stroke:none"
           transform="matrix(1,0,0,-1,0,790)"><tspan
             id="tspan36"
             y="0"
             x="0 16.4988 24.753599 43.7724 60.7752 69.029999 87.040802 106.2756 124.2864 132.5412 140.79601 158.3028 173.79359 192.81239 210.8232 223.326 231.5808 260.31961 278.33041 297.34921">SingleCellExperiment</tspan></text>
</g><path
         id="path40"
         style="fill:#b4c7e7;fill-opacity:1;fill-rule:evenodd;stroke:none"
         d="m 29,168.0833 c 0,2.9916 2.42514,5.4167 5.41669,5.4167 H 215.5833 c 2.9916,0 5.4167,-2.4251 5.4167,-5.4167 V 146.4167 C 221,143.4251 218.5749,141 215.5833,141 H 34.41669 C 31.42514,141 29,143.4251 29,146.4167 Z" /><g
         transform="matrix(7.874016e-5,0,0,-7.874016e-5,29,173.5)"
         id="g42"><path
           id="path44"
           style="fill:none;stroke:#4472c4;stroke-width:12700;stroke-linecap:butt;stroke-linejoin:miter;stroke-miterlimit:8;stroke-dasharray:none;stroke-opacity:1"
           d="M 0,68792.11 C 0,30799.28 30799.23,0 68792,0 h 2300816 c 37993,0 68792,30799.28 68792,68792.11 V 343957.9 c 0,37992.9 -30799,68792.1 -68792,68792.1 H 68792 C 30799.23,412750 0,381950.8 0,343957.9 Z" /></g><g
         transform="matrix(0.5,0,0,0.5,53.45067,-244)"
         id="g46"><text
           id="text50"
           style="font-variant:normal;font-weight:normal;font-size:36px;font-family:Calibri;-inkscape-font-specification:Calibri;writing-mode:lr-tb;fill:#000000;fill-opacity:1;fill-rule:nonzero;stroke:none"
           transform="matrix(1,0,0,-1,0,790)"><tspan
             id="tspan48"
             y="0"
             x="0 16.4988 35.733601 56.4804 68.9832 81.486 98.740799">SCArray</tspan></text>
</g><g
         transform="matrix(0.5,0,0,0.5,115.0757,-244)"
         id="g52"><text
           id="text56"
           style="font-variant:normal;font-weight:normal;font-size:36px;font-family:Calibri;-inkscape-font-specification:Calibri;writing-mode:lr-tb;fill:#000000;fill-opacity:1;fill-rule:nonzero;stroke:none"
           transform="matrix(1,0,0,-1,0,790)"><tspan
             id="tspan54"
             y="0"
             x="0 14.0004">/ </tspan></text>
</g><g
         transform="matrix(0.5,0,0,0.5,126.2007,-244)"
         id="g58"><text
           id="text62"
           style="font-variant:normal;font-weight:normal;font-size:36px;font-family:Calibri;-inkscape-font-specification:Calibri;writing-mode:lr-tb;fill:#000000;fill-opacity:1;fill-rule:nonzero;stroke:none"
           transform="matrix(1,0,0,-1,0,790)"><tspan
             id="tspan60"
             y="0"
             x="0 22.7484 44.992802 61.4772 82.209602 94.697998 107.1864 124.4268">GDSArray</tspan></text>
</g><path
         id="path64"
         style="fill:#4472c4;fill-opacity:1;fill-rule:evenodd;stroke:none"
         d="m 19.75,226.8333 c 0,2.9916 2.42513,5.4167 5.41668,5.4167 H 225.3333 c 2.9916,0 5.4167,-2.4251 5.4167,-5.4167 v -21.6666 c 0,-2.9916 -2.4251,-5.4167 -5.4167,-5.4167 H 25.16668 c -2.99155,0 -5.41668,2.4251 -5.41668,5.4167 z" /><g
         transform="matrix(7.874016e-5,0,0,-7.874016e-5,19.75,232.25)"
         id="g66"><path
           id="path68"
           style="fill:none;stroke:#ffffff;stroke-width:19050;stroke-linecap:butt;stroke-linejoin:miter;stroke-miterlimit:8;stroke-dasharray:none;stroke-opacity:1"
           d="M 0,68792.15 C 0,30799.3 30799.17,0 68791.86,0 H 2610908 c 37993,0 68792,30799.3 68792,68792.15 V 343957.8 c 0,37992.9 -30799,68792.2 -68792,68792.2 H 68791.86 C 30799.17,412750 0,381950.7 0,343957.8 Z" /></g><g
         transform="matrix(0.5,0,0,0.5,71.20059,-185)"
         id="g70"><text
           id="text74"
           style="font-variant:normal;font-weight:normal;font-size:36px;font-family:Calibri;-inkscape-font-specification:Calibri;writing-mode:lr-tb;fill:#ffffff;fill-opacity:1;fill-rule:nonzero;stroke:none"
           transform="matrix(1,0,0,-1,0,790)"><tspan
             id="tspan72"
             y="0"
             x="0 22.2516 40.255199 48.5028 65.750397 81.989998 99.993599 119.0052 149.75281 167.0004 178.992 191.48759 199.7352">DelayedMatrix</tspan></text>
</g><path
         id="path76"
         style="fill:#b4c7e7;fill-opacity:1;fill-rule:evenodd;stroke:none"
         d="M 29,388.5833 C 29,391.5749 31.42515,394 34.41671,394 h 89.66659 c 2.9916,0 5.4167,-2.4251 5.4167,-5.4167 v -21.6666 c 0,-2.9916 -2.4251,-5.4167 -5.4167,-5.4167 H 34.41671 C 31.42515,361.5 29,363.9251 29,366.9167 Z" /><g
         transform="matrix(7.874016e-5,0,0,-7.874016e-5,29,394)"
         id="g78"><path
           id="path80"
           style="fill:none;stroke:#4472c4;stroke-width:12700;stroke-linecap:butt;stroke-linejoin:miter;stroke-miterlimit:8;stroke-dasharray:none;stroke-opacity:1"
           d="M 0,68792.36 C 0,30799.39 30799.34,0 68792.25,0 H 1207558 c 37993,0 68792,30799.39 68792,68792.36 V 343957.6 c 0,37993 -30799,68792.4 -68792,68792.4 H 68792.25 C 30799.34,412750 0,381950.6 0,343957.6 Z" /></g><g
         transform="matrix(0.5,0,0,0.5,57.01339,-23.5)"
         id="g82"><text
           id="text86"
           style="font-variant:normal;font-weight:normal;font-size:36px;font-family:Calibri;-inkscape-font-specification:Calibri;writing-mode:lr-tb;fill:#000000;fill-opacity:1;fill-rule:nonzero;stroke:none"
           transform="matrix(1,0,0,-1,0,790)"><tspan
             id="tspan84"
             y="0"
             x="0 14.0004 29.260799 46.501202 58.4856 76.482002">scater</tspan></text>
</g><path
         id="path88"
         style="fill:#000000;fill-opacity:1;fill-rule:nonzero;stroke:none"
         d="m 126,99.25 1e-4,-21.41614 h -1.5 L 124.5,99.25 Z m -0.75,0 -5,-4.00001 5,10.00001 5,-9.99999 z" /><g
         transform="matrix(0.5,0,0,0.5,150.4756,-27)"
         id="g90"><text
           id="text94"
           style="font-variant:normal;font-weight:bold;font-size:40px;font-family:Calibri;-inkscape-font-specification:Calibri-Bold;writing-mode:lr-tb;fill:#000000;fill-opacity:1;fill-rule:nonzero;stroke:none"
           transform="matrix(1,0,0,-1,0,790)"><tspan
             id="tspan92"
             y="0"
             x="0 10.752 19.743999 30.496 39.487999">. . .</tspan></text>
</g><path
         id="path96"
         style="fill:#b4c7e7;fill-opacity:1;fill-rule:evenodd;stroke:none"
         d="M 78,132.5833 C 78,135.5748 80.42515,138 83.41672,138 h 83.16658 c 2.9916,0 5.4167,-2.4252 5.4167,-5.4167 v -21.6666 c 0,-2.9915 -2.4251,-5.4167 -5.4167,-5.4167 H 83.41672 C 80.42515,105.5 78,107.9252 78,110.9167 Z" /><g
         transform="matrix(7.874016e-5,0,0,-7.874016e-5,78,138)"
         id="g98"><path
           id="path100"
           style="fill:none;stroke:#4472c4;stroke-width:12700;stroke-linecap:butt;stroke-linejoin:miter;stroke-miterlimit:8;stroke-dasharray:none;stroke-opacity:1"
           d="M 0,68792.54 C 0,30799.47 30799.38,0 68792.33,0 H 1125008 c 37993,0 68792,30799.47 68792,68792.54 V 343957.5 c 0,37993 -30799,68792.5 -68792,68792.5 H 68792.33 C 30799.38,412750 0,381950.5 0,343957.5 Z" /></g><g
         transform="matrix(0.5,0,0,0.5,99.57571,-279.5)"
         id="g102"><text
           id="text106"
           style="font-variant:normal;font-weight:normal;font-size:36px;font-family:Calibri;-inkscape-font-specification:Calibri;writing-mode:lr-tb;fill:#000000;fill-opacity:1;fill-rule:nonzero;stroke:none"
           transform="matrix(1,0,0,-1,0,790)"><tspan
             id="tspan104"
             y="0"
             x="0 16.999201 36.0144 50.0256 61.012798 89.748001">gdsfmt</tspan></text>
</g><path
         id="path108"
         style="fill:#e7e6e6;fill-opacity:1;fill-rule:nonzero;stroke:none"
         d="M 221,93 H 346 V 17.5 H 221 Z" /><g
         transform="matrix(7.874016e-5,0,0,-7.874016e-5,221,93)"
         id="g110"><path
           id="path112"
           style="fill:none;stroke:#787878;stroke-width:12700;stroke-linecap:butt;stroke-linejoin:miter;stroke-miterlimit:8;stroke-dasharray:50800, 38100;stroke-dashoffset:0;stroke-opacity:1"
           d="M 0,0 H 1587500 V 958850 H 0 Z" /></g><path
         id="path114"
         style="fill:#d9d9d9;fill-opacity:1;fill-rule:evenodd;stroke:none"
         d="M 229.5,41.99988 C 229.5,43.6568 230.8432,45 232.5001,45 h 101.9998 c 1.6569,0 3.0001,-1.3432 3.0001,-3.00012 V 30.00012 C 337.5,28.3432 336.1568,27 334.4999,27 H 232.5001 c -1.6569,0 -3.0001,1.3432 -3.0001,3.00012 z" /><g
         transform="matrix(7.874016e-5,0,0,-7.874016e-5,229.5,45)"
         id="g116"><path
           id="path118"
           style="fill:none;stroke:#000000;stroke-width:12700;stroke-linecap:butt;stroke-linejoin:miter;stroke-miterlimit:8;stroke-dasharray:none;stroke-opacity:1"
           d="M 0,38101.5 C 0,17058.62 17058.62,0 38101.5,0 H 1333498 c 21043,0 38102,17058.62 38102,38101.5 v 152397 c 0,21042.9 -17059,38101.5 -38102,38101.5 H 38101.5 C 17058.62,228600 0,211541.4 0,190498.5 Z" /></g><g
         transform="matrix(0.5,0,0,0.5,263.3964,-362.5)"
         id="g120"><text
           id="text124"
           style="font-variant:normal;font-weight:normal;font-size:22px;font-family:Calibri;-inkscape-font-specification:Calibri;writing-mode:lr-tb;fill:#000000;fill-opacity:1;fill-rule:nonzero;stroke:none"
           transform="matrix(1,0,0,-1,0,790)"><tspan
             id="tspan122"
             y="0"
             x="0 5.5 17.006001 28.511999 40.018002 47.256001 52.25 59.004002 63.998001 68.991997">Input file</tspan></text>
</g><path
         id="path126"
         style="fill:#b4c7e7;fill-opacity:1;fill-rule:evenodd;stroke:none"
         d="M 229.5,61.99988 C 229.5,63.6568 230.8432,65 232.5001,65 h 101.9998 c 1.6569,0 3.0001,-1.3432 3.0001,-3.00012 V 50.00012 C 337.5,48.3432 336.1568,47 334.4999,47 H 232.5001 c -1.6569,0 -3.0001,1.3432 -3.0001,3.00012 z" /><g
         transform="matrix(7.874016e-5,0,0,-7.874016e-5,229.5,65)"
         id="g128"><path
           id="path130"
           style="fill:none;stroke:#4472c4;stroke-width:12700;stroke-linecap:butt;stroke-linejoin:miter;stroke-miterlimit:8;stroke-dasharray:none;stroke-opacity:1"
           d="M 0,38101.5 C 0,17058.62 17058.62,0 38101.5,0 H 1333498 c 21043,0 38102,17058.62 38102,38101.5 v 152397 c 0,21042.9 -17059,38101.5 -38102,38101.5 H 38101.5 C 17058.62,228600 0,211541.4 0,190498.5 Z" /></g><g
         transform="matrix(0.5,0,0,0.5,260.8964,-342.5)"
         id="g132"><text
           id="text136"
           style="font-variant:normal;font-weight:normal;font-size:22px;font-family:Calibri;-inkscape-font-specification:Calibri;writing-mode:lr-tb;fill:#000000;fill-opacity:1;fill-rule:nonzero;stroke:none"
           transform="matrix(1,0,0,-1,0,790)"><tspan
             id="tspan134"
             y="0"
             x="0 12.001 17.006001 28.500999 39.006001 48.257 58.256001 68.761002 79.001999">R package</tspan></text>
</g><path
         id="path138"
         style="fill:#4472c4;fill-opacity:1;fill-rule:evenodd;stroke:none"
         d="m 229.75,82.24988 c 0,1.65692 1.3432,3.00012 3.0001,3.00012 h 101.9998 c 1.6569,0 3.0001,-1.3432 3.0001,-3.00012 V 70.25012 C 337.75,68.5932 336.4068,67.25 334.7499,67.25 H 232.7501 c -1.6569,0 -3.0001,1.3432 -3.0001,3.00012 z" /><g
         transform="matrix(7.874016e-5,0,0,-7.874016e-5,229.75,85.25)"
         id="g140"><path
           id="path142"
           style="fill:none;stroke:#ffffff;stroke-width:19050;stroke-linecap:butt;stroke-linejoin:miter;stroke-miterlimit:8;stroke-dasharray:none;stroke-opacity:1"
           d="M 0,38101.5 C 0,17058.62 17058.62,0 38101.5,0 H 1333498 c 21043,0 38102,17058.62 38102,38101.5 v 152397 c 0,21042.9 -17059,38101.5 -38102,38101.5 H 38101.5 C 17058.62,228600 0,211541.4 0,190498.5 Z" /></g><g
         transform="matrix(0.5,0,0,0.5,265.2089,-322)"
         id="g144"><text
           id="text148"
           style="font-variant:normal;font-weight:normal;font-size:22px;font-family:Calibri;-inkscape-font-specification:Calibri;writing-mode:lr-tb;fill:#ffffff;fill-opacity:1;fill-rule:nonzero;stroke:none"
           transform="matrix(1,0,0,-1,0,790)"><tspan
             id="tspan146"
             y="0"
             x="0 12.001 17.006001 28.500999 39.995998 45.243 56.231998 65.483002">R object</tspan></text>
</g><path
         id="path150"
         style="fill:#000000;fill-opacity:1;fill-rule:nonzero;stroke:none"
         d="m 126,193.75 1e-4,-20.5846 h -1.5 L 124.5,193.75 Z m -0.75,0 -5,-4 5,10 5,-10 z" /><path
         id="path152"
         style="fill:#000000;fill-opacity:1;fill-rule:nonzero;stroke:none"
         d="m 124.5001,252.75 -1e-4,-20.5846 h 1.5 l 1e-4,20.5846 z m 0.75,0 4.9999,-4 -4.9999,10 -5.0001,-10 z" /><path
         id="path154"
         style="fill:#000000;fill-opacity:1;fill-rule:nonzero;stroke:none"
         d="m 83.65222,356.631 42.47618,-65.2414 -1.2571,-0.8184 -42.47613,65.2414 z m -0.62854,-0.4092 -2.00772,-6.0802 -1.26596,11.1084 9.64632,-5.6523 z" /><g
         transform="matrix(0.5,0,0,0.5,237.6876,-172.5)"
         id="g156"><text
           id="text160"
           style="font-variant:normal;font-weight:bold;font-size:24px;font-family:Calibri;-inkscape-font-specification:Calibri-Bold;writing-mode:lr-tb;fill:#000000;fill-opacity:1;fill-rule:nonzero;stroke:none"
           transform="matrix(1,0,0,-1,0,790)"><tspan
             id="tspan158"
             y="0"
             x="0 15.2496 27.259199 33.268799 44.582401 55.560001 67.569603 80.563202 101.5728 113.1024 121.344 129.84959 135.85921">DelayedMatrix</tspan></text>
</g><g
         transform="matrix(0.5,0,0,0.5,313.8526,-172.5)"
         id="g162"><text
           id="text166"
           style="font-variant:normal;font-weight:normal;font-size:24px;font-family:Calibri;-inkscape-font-specification:Calibri;writing-mode:lr-tb;fill:#000000;fill-opacity:1;fill-rule:nonzero;stroke:none"
           transform="matrix(1,0,0,-1,0,790)"><tspan
             id="tspan164"
             y="0"
             x="0 17.2512 24.9984 36.489601 48.868801 58.368 63.8592 75.350403 87.849602">wraps an </tspan></text>
</g><g
         transform="matrix(0.5,0,0,0.5,237.6876,-187.5)"
         id="g168"><text
           id="text172"
           style="font-variant:normal;font-weight:normal;font-size:24px;font-family:Calibri;-inkscape-font-specification:Calibri;writing-mode:lr-tb;fill:#000000;fill-opacity:1;fill-rule:nonzero;stroke:none"
           transform="matrix(1,0,0,-1,0,790)"><tspan
             id="tspan170"
             y="0"
             x="0 12.7512">on</tspan></text>
</g><g
         transform="matrix(0.5,0,0,0.5,250.3126,-187.5)"
         id="g174"><text
           id="text178"
           style="font-variant:normal;font-weight:normal;font-size:24px;font-family:Calibri;-inkscape-font-specification:Calibri;writing-mode:lr-tb;fill:#000000;fill-opacity:1;fill-rule:nonzero;stroke:none"
           transform="matrix(1,0,0,-1,0,790)"><tspan
             id="tspan176"
             y="0"
             x="0">-</tspan></text>
</g><g
         transform="matrix(0.5,0,0,0.5,253.9376,-187.5)"
         id="g180"><text
           id="text184"
           style="font-variant:normal;font-weight:normal;font-size:24px;font-family:Calibri;-inkscape-font-specification:Calibri;writing-mode:lr-tb;fill:#000000;fill-opacity:1;fill-rule:nonzero;stroke:none"
           transform="matrix(1,0,0,-1,0,790)"><tspan
             id="tspan182"
             y="0"
             x="0 12.4992 17.9904 27.489599 38.500801 43.992001 63.235199 74.510399 82.521599 90.772797 96.264 106.7712 112.2624 123.7536 136.25281 148.752 154.24319 165.73441 171.2256 176.7168 189.384 206.4192 215.9184">disk matrix and allows </tspan></text>
</g><g
         transform="matrix(0.5,0,0,0.5,237.6876,-201.5)"
         id="g186"><text
           id="text190"
           style="font-variant:normal;font-weight:normal;font-size:24px;font-family:Calibri;-inkscape-font-specification:Calibri;writing-mode:lr-tb;fill:#000000;fill-opacity:1;fill-rule:nonzero;stroke:none"
           transform="matrix(1,0,0,-1,0,790)"><tspan
             id="tspan188"
             y="0"
             x="0 10.0512 22.7904 42.0336 61.276798 74.040001 86.5392 92.030403 104.7936 117.2928 129.28799 137.0352 148.31039 156.32159 161.81281 174.576 187.0752 196.5744 202.0656 214.8288 227.328 232.8192 238.31039 246.32159">common operations on it </tspan></text>
</g><g
         transform="matrix(0.5,0,0,0.5,237.6876,-215.5)"
         id="g192"><text
           id="text196"
           style="font-variant:normal;font-weight:normal;font-size:24px;font-family:Calibri;-inkscape-font-specification:Calibri;writing-mode:lr-tb;fill:#000000;fill-opacity:1;fill-rule:nonzero;stroke:none"
           transform="matrix(1,0,0,-1,0,790)"><tspan
             id="tspan194"
             y="0"
             x="0 17.2512 22.742399 30.729601 43.228802 55.992001 68.491203 76.478401 81.969597 87.4608 100.224 111.7152 124.2144 129.7056 142.2048 153.45599 158.9472 166.9344 179.43359 191.4288 196.92 214.1712 226.67039 239.43359 244.9248 256.92001">without loading the whole </tspan></text>
</g><g
         transform="matrix(0.5,0,0,0.5,237.6876,-230.5)"
         id="g198"><text
           id="text202"
           style="font-variant:normal;font-weight:normal;font-size:24px;font-family:Calibri;-inkscape-font-specification:Calibri;writing-mode:lr-tb;fill:#000000;fill-opacity:1;fill-rule:nonzero;stroke:none"
           transform="matrix(1,0,0,-1,0,790)"><tspan
             id="tspan200"
             y="0"
             x="0 12.7512 25.2384 30.9816 42.9888 53.243999 61.243198 66.746399 72.249603 84.520798 92.279999 105.0312 110.5344 129.7896 141.7968 161.052 173.80321 182.1624 191.3376">object into memory.</tspan></text>
</g><path
         id="path204"
         style="fill:#7f7f7f;fill-opacity:1;fill-rule:nonzero;stroke:none"
         d="m 186.0916,354.956 -4.169,-4.315 1.0788,-1.0423 4.169,4.315 z m -7.2957,-7.5513 -4.169,-4.315 1.0787,-1.0423 4.169,4.315 z m -7.2958,-7.5513 -4.169,-4.315 1.0788,-1.0423 4.169,4.315 z m -7.2957,-7.5513 -4.169,-4.315 1.0787,-1.0423 4.169,4.315 z m -7.2958,-7.5513 -4.169,-4.315 1.0788,-1.0423 4.169,4.315 z m -7.2957,-7.5513 -4.169,-4.315 1.0787,-1.0423 4.169,4.315 z m -7.2958,-7.5513 -4.169,-4.315 1.0788,-1.0423 4.169,4.3151 z m -7.2957,-7.5513 -4.169,-4.315 1.0787,-1.0423 4.169,4.315 z m -7.2958,-7.5513 -3.015,-3.1206 1.0788,-1.0423 3.015,3.1207 z m 58.9055,59.8894 0.8165,-6.3509 3.3525,10.6659 -10.5442,-3.7175 z" /><g
         transform="matrix(0.5,0,0,0.5,414.0675,-31)"
         id="g206"><text
           id="text210"
           style="font-variant:normal;font-weight:bold;font-size:40px;font-family:Calibri;-inkscape-font-specification:Calibri-Bold;writing-mode:lr-tb;fill:#000000;fill-opacity:1;fill-rule:nonzero;stroke:none"
           transform="matrix(1,0,0,-1,0,790)"><tspan
             id="tspan208"
             y="0"
             x="0 19 40.48 60.240002 74 90 110.24 119.24 151.72 171.08 184.84 199.08 208.84">Sparse matrix</tspan></text>
</g><g
         transform="matrix(0.5,0,0,0.5,532.2625,-31)"
         id="g212"><text
           id="text216"
           style="font-variant:normal;font-weight:normal;font-size:40px;font-family:Calibri;-inkscape-font-specification:Calibri;writing-mode:lr-tb;fill:#000000;fill-opacity:1;fill-rule:nonzero;stroke:none"
           transform="matrix(1,0,0,-1,0,790)"><tspan
             id="tspan214"
             y="0"
             x="0 9.2519999 30.252001 39.251999 64.503998 89.003998 107.504 116.504 128.756 148.756 159.18401 177.93201 187.93201 197.93201 206.93201 223.60001 244.60001 265.60001 286.23199 299.73199 315.48401 327.73599">in GDS (e.g., counts):</tspan></text>
</g><g
         transform="matrix(0.5,0,0,0.5,414.0675,-53)"
         id="g218"><text
           id="text222"
           style="font-variant:normal;font-weight:normal;font-size:36px;font-family:Calibri;-inkscape-font-specification:Calibri;writing-mode:lr-tb;fill:#000000;fill-opacity:1;fill-rule:nonzero;stroke:none"
           transform="matrix(1,0,0,-1,0,790)"><tspan
             id="tspan220"
             y="0"
             x="0 18.2484 27.244801 35.485199 54.489601 73.494003 92.498398 105.9228 123.9192 135.8316 154.836 163.0764 182.0808 201.08521 229.8456 248.85001 266.84641 278.72281 292.72321 300.96359 318.20401 330.2244 348.22079 356.46121 370.06561 381.72601 400.73041 412.75079 430.74719 449.75159 457.992 475.23239 494.23679 513.24121 521.48163 536.41803 555.42242 584.1828 603.18719 615.20758 633.20398 647.20441 661.20477 679.20117 698.20563">1. nonzero numbers are stored and compressed </tspan></text>
</g><g
         transform="matrix(0.5,0,0,0.5,414.0675,-74)"
         id="g224"><text
           id="text228"
           style="font-variant:normal;font-weight:normal;font-size:36px;font-family:Calibri;-inkscape-font-specification:Calibri;writing-mode:lr-tb;fill:#000000;fill-opacity:1;fill-rule:nonzero;stroke:none"
           transform="matrix(1,0,0,-1,0,790)"><tspan
             id="tspan226"
             y="0"
             x="0 14.0004 31.996799 51.001202 70.0056 88.001999 106.6824 118.6668 126.9072 144.1476 152.388 160.6284 176.8968 185.13721 196.1496 211.086 230.09039 238.3308 257.33521 286.09561">sequentially (column</tspan></text>
</g><g
         transform="matrix(0.5,0,0,0.5,566.6275,-74)"
         id="g230"><text
           id="text234"
           style="font-variant:normal;font-weight:normal;font-size:36px;font-family:Calibri;-inkscape-font-specification:Calibri;writing-mode:lr-tb;fill:#000000;fill-opacity:1;fill-rule:nonzero;stroke:none"
           transform="matrix(1,0,0,-1,0,790)"><tspan
             id="tspan232"
             y="0"
             x="0">-</tspan></text>
</g><g
         transform="matrix(0.5,0,0,0.5,572.1275,-74)"
         id="g236"><text
           id="text240"
           style="font-variant:normal;font-weight:normal;font-size:36px;font-family:Calibri;-inkscape-font-specification:Calibri;writing-mode:lr-tb;fill:#000000;fill-opacity:1;fill-rule:nonzero;stroke:none"
           transform="matrix(1,0,0,-1,0,790)"><tspan
             id="tspan238"
             y="0"
             x="0 28.749599 46.015202 54.496799 73.490402 86.003998 94.2696 113.2632 125.2728 144.2664 162.252 174.76559">major order)</tspan></text>
</g><g
         transform="matrix(0.5,0,0,0.5,414.0675,-96)"
         id="g242"><text
           id="text246"
           style="font-variant:normal;font-weight:normal;font-size:36px;font-family:Calibri;-inkscape-font-specification:Calibri;writing-mode:lr-tb;fill:#000000;fill-opacity:1;fill-rule:nonzero;stroke:none"
           transform="matrix(1,0,0,-1,0,790)"><tspan
             id="tspan244"
             y="0"
             x="0 18.2484 27.244801 35.485199 54.309601 70.218002 88.214401 100.7028 113.1912 121.4316 140.436 158.4324 166.67281 178.58521 197.4456">2. override row</tspan></text>
</g><g
         transform="matrix(0.5,0,0,0.5,525.3224,-96)"
         id="g248"><text
           id="text252"
           style="font-variant:normal;font-weight:normal;font-size:36px;font-family:Calibri;-inkscape-font-specification:Calibri;writing-mode:lr-tb;fill:#000000;fill-opacity:1;fill-rule:nonzero;stroke:none"
           transform="matrix(1,0,0,-1,0,790)"><tspan
             id="tspan250"
             y="0"
             x="0">-</tspan></text>
</g><g
         transform="matrix(0.5,0,0,0.5,530.8224,-96)"
         id="g254"><text
           id="text258"
           style="font-variant:normal;font-weight:normal;font-size:36px;font-family:Calibri;-inkscape-font-specification:Calibri;writing-mode:lr-tb;fill:#000000;fill-opacity:1;fill-rule:nonzero;stroke:none"
           transform="matrix(1,0,0,-1,0,790)"><tspan
             id="tspan256"
             y="0"
             x="0 14.0004 33.004799 51.001202 66.261597 74.501999 85.514397 93.754799 109.0152 117.2556 128.26801 147.2724 166.27679 181.5372 193.52161 201.76199 220.7664 239.7708 253.77119 262.0116 270.25201 289.25641">specific functions in </tspan></text>
</g><g
         transform="matrix(0.5,0,0,0.5,679.5724,-96)"
         id="g260"><text
           id="text264"
           style="font-style:italic;font-variant:normal;font-size:36px;font-family:Calibri;-inkscape-font-specification:Calibri-Italic;writing-mode:lr-tb;fill:#000000;fill-opacity:1;fill-rule:nonzero;stroke:none"
           transform="matrix(1,0,0,-1,0,790)"><tspan
             id="tspan262"
             y="0"
             x="0 22.2516 39.499199 47.746799 66.254402 82.241997 99.489601 117.9972 148.7448 167.2524 179.244 191.48759 199.7352 215.2188 231.4584 242.98199 261.48959 273.4812">DelayedMatrixStats</tspan></text>
</g><g
         transform="matrix(0.5,0,0,0.5,414.0675,-118)"
         id="g266"><text
           id="text270"
           style="font-variant:normal;font-weight:normal;font-size:36px;font-family:Calibri;-inkscape-font-specification:Calibri;writing-mode:lr-tb;fill:#000000;fill-opacity:1;fill-rule:nonzero;stroke:none"
           transform="matrix(1,0,0,-1,0,790)"><tspan
             id="tspan268"
             y="0"
             x="0 11.0016 29.0016 38.3904 55.389599 64.389603 73.389603">(e.g., </tspan></text>
</g><g
         transform="matrix(0.5,0,0,0.5,454.8875,-118)"
         id="g272"><text
           id="text276"
           style="font-variant:normal;font-weight:normal;font-size:36px;font-family:Calibri;-inkscape-font-specification:Calibri;writing-mode:lr-tb;fill:#000000;fill-opacity:1;fill-rule:nonzero;stroke:none"
           transform="matrix(1,0,0,-1,0,790)"><tspan
             id="tspan274"
             y="0"
             x="0 11.9196 30.787201 56.5308 75.038399 92.286003 104.1696">rowVars</tspan></text>
</g><g
         transform="matrix(0.5,0,0,0.5,513.9675,-118)"
         id="g278"><text
           id="text282"
           style="font-variant:normal;font-weight:normal;font-size:36px;font-family:Calibri;-inkscape-font-specification:Calibri;writing-mode:lr-tb;fill:#000000;fill-opacity:1;fill-rule:nonzero;stroke:none"
           transform="matrix(1,0,0,-1,0,790)"><tspan
             id="tspan280"
             y="0"
             x="0 11.0016 19.2672 29.5128 48.506401 61.02 69.285599 79.5672 96.832802 110.4264 122.04 140.0256 152.5392 160.80479 169.0704 197.82001 216.8136 225.07919 243.0648 271.81439 289.79999 308.4696 320.0112 336.91681 348.92639 357.19199 376.18561">) for faster implementation</tspan></text>
</g><path
         id="path284"
         style="fill:#a9d18e;fill-opacity:1;fill-rule:nonzero;stroke:none"
         d="m 424,219.5 h 144 v -115 H 424 Z" /><g
         transform="matrix(7.874016e-5,0,0,-7.874016e-5,424,219.5)"
         id="g286"><path
           id="path288"
           style="fill:none;stroke:#e7e6e6;stroke-width:12700;stroke-linecap:butt;stroke-linejoin:miter;stroke-miterlimit:8;stroke-dasharray:none;stroke-opacity:1"
           d="M 0,0 H 1828800 V 1460500 H 0 Z" /></g><path
         id="path290"
         style="fill:#ffffff;fill-opacity:0.30199998;fill-rule:nonzero;stroke:none"
         d="m 524.75,227.25 h 32.5 v -133 h -32.5 z" /><g
         transform="matrix(7.874016e-5,0,0,-7.874016e-5,524.75,227.25)"
         id="g292"><path
           id="path294"
           style="fill:none;stroke:#000000;stroke-width:19050;stroke-linecap:butt;stroke-linejoin:miter;stroke-miterlimit:8;stroke-dasharray:none;stroke-opacity:1"
           d="M 0,0 H 412750 V 1689100 H 0 Z" /></g><path
         id="path296"
         style="fill:#ffffff;fill-opacity:0.30199998;fill-rule:nonzero;stroke:none"
         d="m 433.25,227.25 h 33 v -133 h -33 z" /><g
         transform="matrix(7.874016e-5,0,0,-7.874016e-5,433.25,227.25)"
         id="g298"><path
           id="path300"
           style="fill:none;stroke:#000000;stroke-width:19050;stroke-linecap:butt;stroke-linejoin:miter;stroke-miterlimit:8;stroke-dasharray:76200, 57150;stroke-dashoffset:0;stroke-opacity:1"
           d="M 0,0 H 419100 V 1689100 H 0 Z" /></g><path
         id="path302"
         style="fill:#000000;fill-opacity:1;fill-rule:nonzero;stroke:none"
         d="m 518.5852,187 -52.3352,-1e-4 v -1.5 l 52.3352,1e-4 z m -10e-5,-0.75 -3.9999,-5 9.9999,5 -10,5 z" /><g
         transform="matrix(0.5,0,0,0.5,421.2744,-336.5)"
         id="g304"><text
           id="text308"
           style="font-variant:normal;font-weight:normal;font-size:36px;font-family:Calibri;-inkscape-font-specification:Calibri;writing-mode:lr-tb;fill:#000000;fill-opacity:1;fill-rule:nonzero;stroke:none"
           transform="matrix(1,0,0,-1,0,790)"><tspan
             id="tspan306"
             y="0"
             x="0 18.871201 36.878399 54.129601 73.144798 81.396004 100.4112 117.3384 128.9016 146.1528 154.40401 172.0872 182.7504 193.73759 201.9888 217.224 225.4752 243.48241 262.1376 274.13281 282.384">Read data efficiently</tspan></text>
</g><g
         transform="matrix(0.5,0,0,0.5,486.8344,-357.5)"
         id="g310"><text
           id="text314"
           style="font-variant:normal;font-weight:normal;font-size:36px;font-family:Calibri;-inkscape-font-specification:Calibri;writing-mode:lr-tb;fill:#000000;fill-opacity:1;fill-rule:nonzero;stroke:none"
           transform="matrix(1,0,0,-1,0,790)"><tspan
             id="tspan312"
             y="0"
             x="0 11.0016 29.995199">(b)</tspan></text>
</g><path
         id="path316"
         style="fill:#a9d18e;fill-opacity:1;fill-rule:nonzero;stroke:none"
         d="m 622,219.5 h 144 v -115 H 622 Z" /><g
         transform="matrix(7.874016e-5,0,0,-7.874016e-5,622,219.5)"
         id="g318"><path
           id="path320"
           style="fill:none;stroke:#e7e6e6;stroke-width:12700;stroke-linecap:butt;stroke-linejoin:miter;stroke-miterlimit:8;stroke-dasharray:none;stroke-opacity:1"
           d="M 0,0 H 1828800 V 1460500 H 0 Z" /></g><path
         id="path322"
         style="fill:#ffffff;fill-opacity:0.30199998;fill-rule:nonzero;stroke:none"
         d="m 611.75,209.75 h 164.5 v -28.5 h -164.5 z" /><g
         transform="matrix(7.874016e-5,0,0,-7.874016e-5,611.75,209.75)"
         id="g324"><path
           id="path326"
           style="fill:none;stroke:#000000;stroke-width:19050;stroke-linecap:butt;stroke-linejoin:miter;stroke-miterlimit:8;stroke-dasharray:76200, 57150;stroke-dashoffset:0;stroke-opacity:1"
           d="M 0,0 H 2089150 V 361950 H 0 Z" /></g><path
         id="path328"
         style="fill:#000000;fill-opacity:1;fill-rule:nonzero;stroke:none"
         d="m 659.5,147.529 10e-5,32.221 h -1.5 L 658,147.529 Z m -0.75,1e-4 -5,4 5,-10 5,9.9999 z" /><path
         id="path330"
         style="fill:#ffffff;fill-opacity:0.30199998;fill-rule:nonzero;stroke:none"
         d="m 611.75,139.25 h 164.5 v -29 h -164.5 z" /><g
         transform="matrix(7.874016e-5,0,0,-7.874016e-5,611.75,139.25)"
         id="g332"><path
           id="path334"
           style="fill:none;stroke:#000000;stroke-width:19050;stroke-linecap:butt;stroke-linejoin:miter;stroke-miterlimit:8;stroke-dasharray:none;stroke-opacity:1"
           d="M 0,0 H 2089150 V 368300 H 0 Z" /></g><g
         transform="matrix(0.5,0,0,0.5,650.7513,-335)"
         id="g336"><text
           id="text340"
           style="font-variant:normal;font-weight:normal;font-size:36px;font-family:Calibri;-inkscape-font-specification:Calibri;writing-mode:lr-tb;fill:#000000;fill-opacity:1;fill-rule:nonzero;stroke:none"
           transform="matrix(1,0,0,-1,0,790)"><tspan
             id="tspan338"
             y="0"
             x="0 9 28.007999 45.683998 56.34 67.356003 75.599998 90.863998 99.108002 117.108 135.79201 147.78 156.024">Inefficiently</tspan></text>
</g><g
         transform="matrix(0.5,0,0,0.5,684.5013,-356)"
         id="g342"><text
           id="text346"
           style="font-variant:normal;font-weight:normal;font-size:36px;font-family:Calibri;-inkscape-font-specification:Calibri;writing-mode:lr-tb;fill:#000000;fill-opacity:1;fill-rule:nonzero;stroke:none"
           transform="matrix(1,0,0,-1,0,790)"><tspan
             id="tspan344"
             y="0"
             x="0 11.0016 26.2512">(c)</tspan></text>
</g><path
         id="path348"
         style="fill:#000000;fill-opacity:1;fill-rule:nonzero;stroke:none"
         d="m 518.5852,135.5 -52.3352,-1e-4 v -1.5 l 52.3352,1e-4 z m -10e-5,-0.75 -3.9999,-5 9.9999,5 -10,5 z" /><path
         id="path350"
         style="fill:#000000;fill-opacity:1;fill-rule:nonzero;stroke:none"
         d="m 732,147.529 10e-5,32.221 h -1.5 L 730.5,147.529 Z m -0.75,1e-4 -5,4 5,-10 5,9.9999 z" /><g
         transform="matrix(0.5,0,0,0.5,424.7424,-161.5)"
         id="g352"><text
           id="text356"
           style="font-variant:normal;font-weight:normal;font-size:24px;font-family:Calibri;-inkscape-font-specification:Calibri;writing-mode:lr-tb;fill:#000000;fill-opacity:1;fill-rule:nonzero;stroke:none"
           transform="matrix(1,0,0,-1,0,790)"><tspan
             id="tspan354"
             y="0"
             x="0 10.0512 22.7904 28.281601 40.7808 60.023998 72.523201 78.014397 85.257599 95.500801 107.496 112.9872 118.4784 127.9776">column (cells)</tspan></text>
</g><g
         transform="matrix(0,0.5,-0.5,0,812.7799,159)"
         id="g358"><text
           id="text362"
           style="font-variant:normal;font-weight:normal;font-size:24px;font-family:Calibri;-inkscape-font-specification:Calibri;writing-mode:lr-tb;fill:#000000;fill-opacity:1;fill-rule:nonzero;stroke:none"
           transform="matrix(1,0,0,-1,0,790)"><tspan
             id="tspan360"
             y="0"
             x="0 7.8600001 20.52 37.764 43.271999 50.652 61.703999 73.716003 86.208 98.220001 107.712">row (genes)</tspan></text>
</g><g
         transform="matrix(0.5,0,0,0.5,626.3361,-170)"
         id="g364"><text
           id="text368"
           style="font-variant:normal;font-weight:normal;font-size:24px;font-family:Calibri;-inkscape-font-specification:Calibri;writing-mode:lr-tb;fill:#000000;fill-opacity:1;fill-rule:nonzero;stroke:none"
           transform="matrix(1,0,0,-1,0,790)"><tspan
             id="tspan366"
             y="0"
             x="0 10.0512 22.7904 28.281601 40.7808 60.023998 72.523201 78.014397 85.257599 95.500801 107.496 112.9872 118.4784 127.9776">column (cells)</tspan></text>
</g><g
         transform="matrix(0,0.5,-0.5,0,1001.112,159)"
         id="g370"><text
           id="text374"
           style="font-variant:normal;font-weight:normal;font-size:24px;font-family:Calibri;-inkscape-font-specification:Calibri;writing-mode:lr-tb;fill:#000000;fill-opacity:1;fill-rule:nonzero;stroke:none"
           transform="matrix(1,0,0,-1,0,790)"><tspan
             id="tspan372"
             y="0"
             x="0 7.8600001 20.52 37.764 43.271999 50.652 61.703999 73.716003 86.208 98.220001 107.712">row (genes)</tspan></text>
</g><g
         transform="matrix(0.5,0,0,0.5,115.2006,-378.5)"
         id="g376"><text
           id="text380"
           style="font-variant:normal;font-weight:normal;font-size:36px;font-family:Calibri;-inkscape-font-specification:Calibri;writing-mode:lr-tb;fill:#081538;fill-opacity:1;fill-rule:nonzero;stroke:none"
           transform="matrix(1,0,0,-1,0,790)"><tspan
             id="tspan378"
             y="0"
             x="0 11.0016 28.2672">(a)</tspan></text>
</g></g></g></svg>