<?xml version="1.0" encoding="UTF-8" standalone="no"?>
<!DOCTYPE svg PUBLIC "-//W3C//DTD SVG 1.1//EN" "http://www.w3.org/Graphics/SVG/1.1/DTD/svg11.dtd">
<svg xmlns="http://www.w3.org/2000/svg" xmlns:xlink="http://www.w3.org/1999/xlink" version="1.1" width="371.8916pt" height="200.36609pt" viewBox="0 0 371.8916 200.36609">
<g enable-background="new">
<clipPath id="cp0">
<path transform="matrix(1,0,0,-1,-59.07621,665.7167)" d="M 0 .2400177 L 612 .2400177 L 612 792 L 0 792 Z "/>
</clipPath>
<g clip-path="url(#cp0)">
<path transform="matrix(1,0,0,-1,-59.07621,665.7167)" d="M 0 .2400177 L 612 .2400177 L 612 792 L 0 792 Z " fill="#ffffff"/>
</g>
<clipPath id="cp1">
<path transform="matrix(1,0,0,-1,-59.07621,665.7167)" d="M 0 0 L 612 0 L 612 792 L 0 792 Z "/>
</clipPath>
<g clip-path="url(#cp1)">
<path transform="matrix(1,0,0,-1,-59.07621,665.7167)" d="M 0 .00002065301 L 612 .00002065301 L 612 792 L 0 792 Z " fill="#ffffff"/>
<path transform="matrix(1,0,0,-1,-59.07621,665.7167)" d="M 77.57669 490.3745 C 77.57669 492.5285 79.32279 494.2746 81.47671 494.2746 L 204.7767 494.2746 C 206.9306 494.2746 208.6767 492.5285 208.6767 490.3745 L 208.6767 474.7746 C 208.6767 472.6207 206.9306 470.8746 204.7767 470.8746 L 81.47671 470.8746 C 79.32279 470.8746 77.57669 472.6207 77.57669 474.7746 Z " fill="#d9d9d9"/>
<path transform="matrix(.00007874016,0,0,.00007874016,18.50048,171.44208)" stroke-width="12700" stroke-linecap="butt" stroke-miterlimit="8" stroke-linejoin="miter" fill="none" stroke="#000000" d="M 0 49530.61 C 0 22175.61 22175.47 0 49530.31 0 L 1615440 0 C 1642795 0 1664970 22175.61 1664970 49530.61 L 1664970 247649.4 C 1664970 275004.4 1642795 297180 1615440 297180 L 49530.31 297180 C 22175.47 297180 0 275004.4 0 247649.4 Z "/>
<text xml:space="preserve" transform="matrix(.24 0 -0 .24 62.23799 979.39669)" font-size="45.83333" font-family="TimesNewRomanPSMT"><tspan y="-3299" x="0 33.334585 66.669178 92.18918 103.64751 118.74959 131.24834 143.74709 164.06041">GDS files</tspan></text>
<path transform="matrix(1,0,0,-1,-59.07621,665.7167)" d="M 64.82669 615.4313 C 64.82669 617.5853 66.57282 619.3314 68.72679 619.3314 L 217.5266 619.3314 C 219.6805 619.3314 221.4267 617.5853 221.4267 615.4313 L 221.4267 599.8315 C 221.4267 597.6776 219.6805 595.9314 217.5266 595.9314 L 68.72679 595.9314 C 66.57282 595.9314 64.82669 597.6776 64.82669 599.8315 Z " fill="#4472c4"/>
<path transform="matrix(.00007874016,0,0,.00007874016,5.7504808,46.385255)" stroke-width="19050" stroke-linecap="butt" stroke-miterlimit="8" stroke-linejoin="miter" fill="none" stroke="#ffffff" d="M 0 49531.45 C 0 22175.98 22175.91 0 49531.27 0 L 1939289 0 C 1966644 0 1988820 22175.98 1988820 49531.45 L 1988820 247648.5 C 1988820 275004 1966644 297180 1939289 297180 L 49531.27 297180 C 22175.91 297180 0 275004 0 247648.5 Z "/>
<text fill="#ffffff" xml:space="preserve" transform="matrix(.24 0 -0 .24 35.36296 854.3567)" font-size="45.83333" font-family="TimesNewRomanPSMT"><tspan y="-3299" x="0 25.52 38.01875 60.935415 83.85208 96.35083 116.66416 147.39542 167.70876 180.2075 192.70626 220.82959 243.74625 266.6629 286.97627 302.07835 314.5771 349.9925 370.30586 393.2225">SingleCellExperiment</tspan></text>
<path transform="matrix(1,0,0,-1,-59.07621,665.7167)" d="M 96.32669 554.4223 C 96.32669 556.5762 98.07282 558.3224 100.2268 558.3224 L 186.0266 558.3224 C 188.1805 558.3224 189.9267 556.5762 189.9267 554.4223 L 189.9267 538.8225 C 189.9267 536.6685 188.1805 534.9224 186.0266 534.9224 L 100.2268 534.9224 C 98.07282 534.9224 96.32669 536.6685 96.32669 538.8225 Z " fill="#b4c7e7"/>
<path transform="matrix(.00007874016,0,0,.00007874016,37.25048,107.39429)" stroke-width="12700" stroke-linecap="butt" stroke-miterlimit="8" stroke-linejoin="miter" fill="none" stroke="#4472c4" d="M 0 49531.3 C 0 22175.92 22175.92 0 49531.3 0 L 1139189 0 C 1166544 0 1188720 22175.92 1188720 49531.3 L 1188720 247648.7 C 1188720 275004.1 1166544 297180 1139189 297180 L 49531.3 297180 C 22175.92 297180 0 275004.1 0 247648.7 Z "/>
<text xml:space="preserve" transform="matrix(.24 0 -0 .24 64.48799 915.31668)" font-size="45.83333" font-family="TimesNewRomanPSMT"><tspan y="-3299" x="0 25.52 56.265005 89.622509 104.738338 119.854167 140.14917">SCArray</tspan></text>
<path transform="matrix(1,0,0,-1,-59.07621,665.7167)" d="M 96.32677 579.9878 C 96.32677 582.1417 98.0729 583.8879 100.2269 583.8879 L 186.0266 583.8879 C 188.1806 583.8879 189.9267 582.1417 189.9267 579.9878 L 189.9267 564.388 C 189.9267 562.234 188.1806 560.4879 186.0266 560.4879 L 100.2269 560.4879 C 98.0729 560.4879 96.32677 562.234 96.32677 564.388 Z " fill="#4472c4"/>
<path transform="matrix(.00007874016,0,0,.00007874016,37.250558,81.8288)" stroke-width="19050" stroke-linecap="butt" stroke-miterlimit="8" stroke-linejoin="miter" fill="none" stroke="#ffffff" d="M 0 49531.3 C 0 22175.92 22175.9 0 49531.26 0 L 1139188 0 C 1166543 0 1188719 22175.92 1188719 49531.3 L 1188719 247648.7 C 1188719 275004.1 1166543 297180 1139188 297180 L 49531.26 297180 C 22175.9 297180 0 275004.1 0 247648.7 Z "/>
<text fill="#ffffff" xml:space="preserve" transform="matrix(.24 0 -0 .24 50.86299 889.63668)" font-size="45.83333" font-family="TimesNewRomanPSMT"><tspan y="-3299" x="0 33.334585 53.647916 66.14666 86.45999 109.376659 129.68999 152.60666 193.23332 213.54665 226.0454 241.14748 253.64623">DelayedMatrix</tspan></text>
<path transform="matrix(1,0,0,-1,-59.07621,665.7167)" d="M 92.72669 657.2263 C 92.72669 659.3803 94.4728 661.1264 96.62673 661.1264 L 189.6266 661.1264 C 191.7806 661.1264 193.5267 659.3803 193.5267 657.2263 L 193.5267 641.6264 C 193.5267 639.4725 191.7806 637.7264 189.6266 637.7264 L 96.62673 637.7264 C 94.4728 637.7264 92.72669 639.4725 92.72669 641.6264 Z " fill="#b4c7e7"/>
<path transform="matrix(.00007874016,0,0,.00007874016,33.650484,4.590271)" stroke-width="12700" stroke-linecap="butt" stroke-miterlimit="8" stroke-linejoin="miter" fill="none" stroke="#4472c4" d="M 0 49530.7 C 0 22175.65 22175.6 0 49530.6 0 L 1230629 0 C 1257984 0 1280160 22175.65 1280160 49530.7 L 1280160 247649.3 C 1280160 275004.4 1257984 297180 1230629 297180 L 49530.6 297180 C 22175.6 297180 0 275004.4 0 247649.3 Z "/>
<text xml:space="preserve" transform="matrix(.24 0 -0 .24 71.30048 812.3567)" font-size="45.83333" font-family="TimesNewRomanPSMT"><tspan y="-3299" x="0 17.71 38.032499 58.354997 70.84 91.1625">scater</tspan></text>
<path transform="matrix(1,0,0,-1,-59.07621,665.7167)" d="M 143.6267 591.9314 L 143.6268 583.8879 L 142.6268 583.8879 L 142.6267 591.9314 Z M 143.1267 591.9314 L 140.1267 589.9314 L 143.1267 595.9314 L 146.1267 589.9314 Z "/>
<path transform="matrix(1,0,0,-1,-59.07621,665.7167)" d="M 143.6267 505.3569 L 143.6268 494.2746 L 142.6268 494.2746 L 142.6267 505.3569 Z M 143.1267 505.3569 L 140.1267 503.3568 L 143.1267 509.3569 L 146.1267 503.3569 Z "/>
<path transform="matrix(1,0,0,-1,-59.07621,665.7167)" d="M 143.6267 630.5225 L 143.6268 617.5314 L 142.6268 617.5314 L 142.6267 630.5225 Z M 143.1267 630.5225 L 140.1267 628.5225 L 143.1267 634.5225 L 146.1267 628.5225 Z "/>
<text xml:space="preserve" transform="matrix(.24 0 -0 .24 141.65048 814.9967)" font-size="83.33333" font-family="Calibri" font-weight="bold"><tspan y="-3299" x="0 22.4 41.13333 63.533334 82.26666">. . .</tspan></text>
<path transform="matrix(1,0,0,-1,-59.07621,665.7167)" d="M 297.2157 470.8746 L 422.0735 470.8746 L 422.0735 545.7492 L 297.2157 545.7492 Z " fill="#e7e6e6"/>
<path transform="matrix(.00007874016,0,0,.00007874016,238.1395,119.96747)" stroke-width="12700" stroke-linecap="butt" stroke-dasharray="50800,38100" stroke-miterlimit="8" stroke-linejoin="miter" fill="none" stroke="#787878" d="M 0 0 L 1585694 0 L 1585694 950908 L 0 950908 Z "/>
<path transform="matrix(1,0,0,-1,-59.07621,665.7167)" d="M 305.4491 494.6758 C 305.4491 496.3327 306.7923 497.6759 308.4492 497.6759 L 410.449 497.6759 C 412.1059 497.6759 413.4491 496.3327 413.4491 494.6758 L 413.4491 482.676 C 413.4491 481.0191 412.1059 479.6759 410.449 479.6759 L 308.4492 479.6759 C 306.7923 479.6759 305.4491 481.0191 305.4491 482.676 Z " fill="#d9d9d9"/>
<path transform="matrix(.00007874016,0,0,.00007874016,246.3729,168.04077)" stroke-width="12700" stroke-linecap="butt" stroke-miterlimit="8" stroke-linejoin="miter" fill="none" stroke="#000000" d="M 0 38101.5 C 0 17058.62 17058.62 0 38101.5 0 L 1333498 0 C 1354541 0 1371600 17058.62 1371600 38101.5 L 1371600 190498.5 C 1371600 211541.4 1354541 228600 1333498 228600 L 38101.5 228600 C 17058.62 228600 0 211541.4 0 190498.5 Z "/>
<text xml:space="preserve" transform="matrix(.24 0 -0 .24 280.1854 973.1567)" font-size="45.83333" font-family="TimesNewRomanPSMT"><tspan y="-3299" x="0 15.102082 38.018747 60.93541 83.85207 96.35082 107.80916 122.91124 135.40999 147.90874">Input file</tspan></text>
<path transform="matrix(1,0,0,-1,-59.07621,665.7167)" d="M 305.4491 514.9916 C 305.4491 516.6485 306.7923 517.9917 308.4492 517.9917 L 410.449 517.9917 C 412.1059 517.9917 413.4491 516.6485 413.4491 514.9916 L 413.4491 502.9918 C 413.4491 501.3349 412.1059 499.9917 410.449 499.9917 L 308.4492 499.9917 C 306.7923 499.9917 305.4491 501.3349 305.4491 502.9918 Z " fill="#b4c7e7"/>
<path transform="matrix(.00007874016,0,0,.00007874016,246.3729,147.72498)" stroke-width="12700" stroke-linecap="butt" stroke-miterlimit="8" stroke-linejoin="miter" fill="none" stroke="#4472c4" d="M 0 38101.5 C 0 17058.62 17058.62 0 38101.5 0 L 1333498 0 C 1354541 0 1371600 17058.62 1371600 38101.5 L 1371600 190498.5 C 1371600 211541.4 1354541 228600 1333498 228600 L 38101.5 228600 C 17058.62 228600 0 211541.4 0 190498.5 Z "/>
<text xml:space="preserve" transform="matrix(.24 0 -0 .24 277.3104 952.9967)" font-size="45.83333" font-family="TimesNewRomanPSMT"><tspan y="-3299" x="0 30.73125 42.189584 65.10625 85.41958 105.73291 128.64957 148.9629 171.87958">R package</tspan></text>
<path transform="matrix(1,0,0,-1,-59.07621,665.7167)" d="M 305.4491 535.3074 C 305.4491 536.9644 306.7923 538.3076 308.4492 538.3076 L 410.449 538.3076 C 412.1059 538.3076 413.4491 536.9644 413.4491 535.3074 L 413.4491 523.3077 C 413.4491 521.6508 412.1059 520.3076 410.449 520.3076 L 308.4492 520.3076 C 306.7923 520.3076 305.4491 521.6508 305.4491 523.3077 Z " fill="#4472c4"/>
<path transform="matrix(.00007874016,0,0,.00007874016,246.3729,127.40906)" stroke-width="19050" stroke-linecap="butt" stroke-miterlimit="8" stroke-linejoin="miter" fill="none" stroke="#ffffff" d="M 0 38101.5 C 0 17058.62 17058.62 0 38101.5 0 L 1333498 0 C 1354541 0 1371600 17058.62 1371600 38101.5 L 1371600 190498.5 C 1371600 211541.4 1354541 228600 1333498 228600 L 38101.5 228600 C 17058.62 228600 0 211541.4 0 190498.5 Z "/>
<text fill="#ffffff" xml:space="preserve" transform="matrix(.24 0 -0 .24 281.9354 932.5967)" font-size="45.83333" font-family="TimesNewRomanPSMT"><tspan y="-3299" x="0 30.73125 42.189584 65.10625 88.02291 100.52166 120.83499 141.14833">R object</tspan></text>
<path transform="matrix(1,0,0,-1,-59.07621,665.7167)" d="M 96.32669 528.8567 C 96.32669 531.0107 98.07282 532.7569 100.2268 532.7569 L 186.0266 532.7569 C 188.1805 532.7569 189.9267 531.0107 189.9267 528.8567 L 189.9267 513.257 C 189.9267 511.103 188.1805 509.3569 186.0266 509.3569 L 100.2268 509.3569 C 98.07282 509.3569 96.32669 511.103 96.32669 513.257 Z " fill="#b4c7e7"/>
<path transform="matrix(.00007874016,0,0,.00007874016,37.25048,132.95978)" stroke-width="12700" stroke-linecap="butt" stroke-miterlimit="8" stroke-linejoin="miter" fill="none" stroke="#4472c4" d="M 0 49531.3 C 0 22175.92 22175.92 0 49531.3 0 L 1139189 0 C 1166544 0 1188720 22175.92 1188720 49531.3 L 1188720 247648.7 C 1188720 275004.1 1166544 297180 1139189 297180 L 49531.3 297180 C 22175.92 297180 0 275004.1 0 247648.7 Z "/>
<text xml:space="preserve" transform="matrix(.24 0 -0 .24 68.86299 940.7567)" font-size="45.83333" font-family="TimesNewRomanPSMT"><tspan y="-3299" x="0 22.916665 45.83333 63.543329 78.64541 114.06082">gdsfmt</tspan></text>
</g>
</g>
</svg>
